<svg width="142" height="106" viewBox="0 0 142 106" fill="none" xmlns="http://www.w3.org/2000/svg">
<path d="M59.707 29.964L36.7354 52.936L89.1514 105.352L141.568 52.936L109.494 20.8619L91.2402 39.1694L102.91 50.8389L110.024 43.725L119.235 52.936L89.1519 83.0194L59.0684 52.936L70.8711 41.1304L59.707 29.964Z" fill="#FFDD22"/>
<path d="M70.8711 18.8L82.0352 29.964L100.313 11.6818L89.1514 0.519783L70.8711 18.8Z" fill="#FFDD22"/>
<path fill-rule="evenodd" clip-rule="evenodd" d="M52.5908 0.519783L70.8711 18.8L82.0352 29.9641L91.2407 39.1694L102.91 50.8388L105.007 52.936L82.0376 75.9054L70.8711 64.7389L82.6743 52.936L70.8711 41.1305L59.707 29.9641L41.4287 11.6818L52.5908 0.519783ZM59.7046 75.9055L70.8711 87.0719L52.5908 105.352L0.174805 52.936L32.2485 20.8619L43.4004 32.047L22.5073 52.936L52.5908 83.0194L59.7046 75.9055Z" fill="#22DDFF"/>
</svg>
